<svg width="200" height="200" viewBox="0 0 200 200" fill="none" xmlns="http://www.w3.org/2000/svg">
  <rect width="200" height="200" fill="#F6F6F6"/>
  <circle cx="100" cy="100" r="80" fill="#FF9800" opacity="0.3"/>
  <path d="M100 60 Q85 80 90 120 Q100 140 110 120 Q115 80 100 60 Z" fill="#FF9800"/>
  <path d="M100 65 Q90 80 93 115 Q100 130 107 115 Q110 80 100 65 Z" fill="#FFB74D"/>
  <g stroke="#4CAF50" stroke-width="2" fill="#4CAF50">
    <path d="M95 60 Q90 50 85 45"/>
    <path d="M100 58 Q95 48 90 43"/>
    <path d="M105 60 Q110 50 115 45"/>
    <path d="M100 62 Q105 52 110 47"/>
  </g>
  <text x="100" y="170" text-anchor="middle" fill="#E65100" font-family="Arial, sans-serif" font-size="14" font-weight="bold">Cenoura</text>
</svg>