<svg width="200" height="200" viewBox="0 0 200 200" fill="none" xmlns="http://www.w3.org/2000/svg">
  <rect width="200" height="200" fill="#F6F6F6"/>
  <circle cx="100" cy="100" r="80" fill="#FFC107" opacity="0.3"/>
  <path d="M70 100 Q80 80 100 85 Q120 90 130 100 Q125 120 110 125 Q90 130 80 120 Q75 110 70 100 Z" fill="#FFC107"/>
  <path d="M75 105 Q85 88 100 90 Q115 93 125 105 Q120 118 108 120 Q95 125 85 118 Q80 112 75 105 Z" fill="#FFD54F"/>
  <ellipse cx="90" cy="95" rx="8" ry="12" fill="#FFECB3"/>
  <ellipse cx="110" cy="110" rx="6" ry="10" fill="#FFECB3"/>
  <text x="100" y="170" text-anchor="middle" fill="#F57F17" font-family="Arial, sans-serif" font-size="14" font-weight="bold">Gengibre</text>
</svg>