<svg width="200" height="200" viewBox="0 0 200 200" fill="none" xmlns="http://www.w3.org/2000/svg">
  <rect width="200" height="200" fill="#F6F6F6"/>
  <circle cx="100" cy="100" r="80" fill="#9C27B0" opacity="0.3"/>
  <g fill="#9C27B0">
    <circle cx="100" cy="70" r="8"/>
    <circle cx="90" cy="80" r="8"/>
    <circle cx="110" cy="80" r="8"/>
    <circle cx="85" cy="95" r="8"/>
    <circle cx="100" cy="90" r="8"/>
    <circle cx="115" cy="95" r="8"/>
    <circle cx="90" cy="105" r="8"/>
    <circle cx="110" cy="105" r="8"/>
    <circle cx="85" cy="120" r="8"/>
    <circle cx="100" cy="115" r="8"/>
    <circle cx="115" cy="120" r="8"/>
    <circle cx="95" cy="130" r="8"/>
    <circle cx="105" cy="130" r="8"/>
  </g>
  <path d="M100 60 Q95 50 90 45 Q95 40 105 45 Q110 50 100 60" fill="#4CAF50"/>
  <text x="100" y="170" text-anchor="middle" fill="#7B1FA2" font-family="Arial, sans-serif" font-size="14" font-weight="bold">Uva</text>
</svg>